{
  "accessors": [
    {
      "bufferView": 2,
      "componentType": 5126,
      "count": 630,
      "max": [
        0.13951139152050018,
        0.0,
        0.13964124023914337
      ],
      "min": [
        -0.13951167464256287,
        -1.1856913566589355,
        -0.13938182592391968
      ],
      "type": "VEC3"
    },
    {
      "bufferView": 2,
      "byteOffset": 7560,
      "componentType": 5126,
      "count": 630,
      "max": [
        1.0,
        1.0,
        1.0
      ],
      "min": [
        -1.0,
        -1.0,
        -1.0
      ],
      "type": "VEC3"
    },
    {
      "bufferView": 3,
      "componentType": 5126,
      "count": 630,
      "max": [
        1.0,
        0.995309054851532,
        1.0,
        1.0
      ],
      "min": [
        -1.0,
        -1.0,
        -1.0,
        1.0
      ],
      "type": "VEC4"
    },
    {
      "bufferView": 1,
      "componentType": 5126,
      "count": 630,
      "max": [
        0.9941741228103638,
        0.9942339658737183
      ],
      "min": [
        0.004638892598450184,
        0.005640887655317783
      ],
      "type": "VEC2"
    },
    {
      "bufferView": 1,
      "byteOffset": 5040,
      "componentType": 5126,
      "count": 630,
      "max": [
        0.9922736883163452,
        0.9785776734352112
      ],
      "min": [
        0.013388058170676231,
        0.012914597988128662
      ],
      "type": "VEC2"
    },
    {
      "bufferView": 1,
      "byteOffset": 10080,
      "componentType": 5126,
      "count": 630,
      "max": [
        0.9941741228103638,
        0.9942339658737183
      ],
      "min": [
        0.004638892598450184,
        0.005640887655317783
      ],
      "type": "VEC2"
    },
    {
      "bufferView": 1,
      "byteOffset": 15120,
      "componentType": 5126,
      "count": 630,
      "max": [
        0.9941741228103638,
        0.9942339658737183
      ],
      "min": [
        0.004638892598450184,
        0.005640887655317783
      ],
      "type": "VEC2"
    },
    {
      "bufferView": 1,
      "byteOffset": 20160,
      "componentType": 5126,
      "count": 630,
      "max": [
        0.9941741228103638,
        0.9942339658737183
      ],
      "min": [
        0.004638892598450184,
        0.005640887655317783
      ],
      "type": "VEC2"
    },
    {
      "bufferView": 1,
      "byteOffset": 25200,
      "componentType": 5126,
      "count": 630,
      "max": [
        0.9941741228103638,
        0.9942339658737183
      ],
      "min": [
        0.004638892598450184,
        0.005640887655317783
      ],
      "type": "VEC2"
    },
    {
      "bufferView": 0,
      "componentType": 5125,
      "count": 2562,
      "type": "SCALAR"
    },
    {
      "bufferView": 2,
      "byteOffset": 15120,
      "componentType": 5126,
      "count": 990,
      "max": [
        0.32887527346611023,
        -0.00013834238052368164,
        0.32887545228004456
      ],
      "min": [
        -0.3288753032684326,
        -1.0107392072677612,
        -0.3288751244544983
      ],
      "type": "VEC3"
    },
    {
      "bufferView": 2,
      "byteOffset": 27000,
      "componentType": 5126,
      "count": 990,
      "max": [
        1.0,
        1.0,
        1.0
      ],
      "min": [
        -1.0,
        -0.9545440077781677,
        -1.0
      ],
      "type": "VEC3"
    },
    {
      "bufferView": 3,
      "byteOffset": 10080,
      "componentType": 5126,
      "count": 990,
      "max": [
        0.9999912977218628,
        0.9973912239074707,
        0.9990363717079163,
        1.0
      ],
      "min": [
        -1.0,
        -0.9949199557304382,
        -0.9980006814002991,
        1.0
      ],
      "type": "VEC4"
    },
    {
      "bufferView": 1,
      "byteOffset": 30240,
      "componentType": 5126,
      "count": 990,
      "max": [
        0.8081973791122437,
        0.9942339658737183
      ],
      "min": [
        0.004638892598450184,
        0.06687021255493164
      ],
      "type": "VEC2"
    },
    {
      "bufferView": 1,
      "byteOffset": 38160,
      "componentType": 5126,
      "count": 990,
      "max": [
        0.9863629341125488,
        0.9860804080963135
      ],
      "min": [
        0.007888685911893845,
        0.010927898809313774
      ],
      "type": "VEC2"
    },
    {
      "bufferView": 1,
      "byteOffset": 46080,
      "componentType": 5126,
      "count": 990,
      "max": [
        0.8081973791122437,
        0.9942339658737183
      ],
      "min": [
        0.004638892598450184,
        0.06687021255493164
      ],
      "type": "VEC2"
    },
    {
      "bufferView": 1,
      "byteOffset": 54000,
      "componentType": 5126,
      "count": 990,
      "max": [
        0.8081973791122437,
        0.9942339658737183
      ],
      "min": [
        0.004638892598450184,
        0.06687021255493164
      ],
      "type": "VEC2"
    },
    {
      "bufferView": 1,
      "byteOffset": 61920,
      "componentType": 5126,
      "count": 990,
      "max": [
        0.8081973791122437,
        0.9942339658737183
      ],
      "min": [
        0.004638892598450184,
        0.06687021255493164
      ],
      "type": "VEC2"
    },
    {
      "bufferView": 1,
      "byteOffset": 69840,
      "componentType": 5126,
      "count": 990,
      "max": [
        0.8081973791122437,
        0.9942339658737183
      ],
      "min": [
        0.004638892598450184,
        0.06687021255493164
      ],
      "type": "VEC2"
    },
    {
      "bufferView": 0,
      "byteOffset": 10248,
      "componentType": 5125,
      "count": 4746,
      "type": "SCALAR"
    },
    {
      "bufferView": 2,
      "byteOffset": 38880,
      "componentType": 5126,
      "count": 265,
      "max": [
        0.020496968179941177,
        0.06805390119552612,
        0.04416310787200928
      ],
      "min": [
        -4.656612873077393e-10,
        -0.07517080008983612,
        -0.0441630482673645
      ],
      "type": "VEC3"
    },
    {
      "bufferView": 2,
      "byteOffset": 42060,
      "componentType": 5126,
      "count": 265,
      "max": [
        0.999999463558197,
        1.0,
        1.0
      ],
      "min": [
        -0.11570139229297638,
        -1.0,
        -1.0
      ],
      "type": "VEC3"
    },
    {
      "bufferView": 3,
      "byteOffset": 25920,
      "componentType": 5126,
      "count": 265,
      "max": [
        0.9999947547912598,
        1.0,
        0.2985471189022064,
        1.0
      ],
      "min": [
        -1.0,
        -0.8917396664619446,
        -1.0,
        1.0
      ],
      "type": "VEC4"
    },
    {
      "bufferView": 1,
      "byteOffset": 77760,
      "componentType": 5126,
      "count": 265,
      "max": [
        0.9935159087181091,
        0.994230329990387
      ],
      "min": [
        0.4347683787345886,
        0.3296707272529602
      ],
      "type": "VEC2"
    },
    {
      "bufferView": 1,
      "byteOffset": 79880,
      "componentType": 5126,
      "count": 265,
      "max": [
        0.9104253649711609,
        0.9866862297058105
      ],
      "min": [
        0.013313798233866692,
        0.013313798233866692
      ],
      "type": "VEC2"
    },
    {
      "bufferView": 1,
      "byteOffset": 82000,
      "componentType": 5126,
      "count": 265,
      "max": [
        0.9935159087181091,
        0.994230329990387
      ],
      "min": [
        0.4347683787345886,
        0.3296707272529602
      ],
      "type": "VEC2"
    },
    {
      "bufferView": 1,
      "byteOffset": 84120,
      "componentType": 5126,
      "count": 265,
      "max": [
        0.9935159087181091,
        0.994230329990387
      ],
      "min": [
        0.4347683787345886,
        0.3296707272529602
      ],
      "type": "VEC2"
    },
    {
      "bufferView": 1,
      "byteOffset": 86240,
      "componentType": 5126,
      "count": 265,
      "max": [
        0.9935159087181091,
        0.994230329990387
      ],
      "min": [
        0.4347683787345886,
        0.3296707272529602
      ],
      "type": "VEC2"
    },
    {
      "bufferView": 1,
      "byteOffset": 88360,
      "componentType": 5126,
      "count": 265,
      "max": [
        0.9935159087181091,
        0.994230329990387
      ],
      "min": [
        0.4347683787345886,
        0.3296707272529602
      ],
      "type": "VEC2"
    },
    {
      "bufferView": 0,
      "byteOffset": 29232,
      "componentType": 5125,
      "count": 822,
      "type": "SCALAR"
    },
    {
      "bufferView": 2,
      "byteOffset": 45240,
      "componentType": 5126,
      "count": 166,
      "max": [
        0.019927863031625748,
        0.04416310787200928,
        0.04416307806968689
      ],
      "min": [
        -0.00017943652346730232,
        -0.04416303336620331,
        -0.044163063168525696
      ],
      "type": "VEC3"
    },
    {
      "bufferView": 2,
      "byteOffset": 47232,
      "componentType": 5126,
      "count": 166,
      "max": [
        0.99941086769104,
        1.0,
        1.0
      ],
      "min": [
        -0.11570151150226593,
        -1.0,
        -1.0
      ],
      "type": "VEC3"
    },
    {
      "bufferView": 3,
      "byteOffset": 30160,
      "componentType": 5126,
      "count": 166,
      "max": [
        1.0,
        0.9999571442604065,
        0.033538591116666794,
        1.0
      ],
      "min": [
        -1.0,
        -0.7211945652961731,
        -1.0,
        1.0
      ],
      "type": "VEC4"
    },
    {
      "bufferView": 1,
      "byteOffset": 90480,
      "componentType": 5126,
      "count": 166,
      "max": [
        0.9954633712768555,
        0.994230329990387
      ],
      "min": [
        0.6721073985099792,
        0.6853029727935791
      ],
      "type": "VEC2"
    },
    {
      "bufferView": 1,
      "byteOffset": 91808,
      "componentType": 5126,
      "count": 166,
      "max": [
        0.8520918488502502,
        0.9855650067329407
      ],
      "min": [
        0.01443495787680149,
        0.01443495787680149
      ],
      "type": "VEC2"
    },
    {
      "bufferView": 1,
      "byteOffset": 93136,
      "componentType": 5126,
      "count": 166,
      "max": [
        0.9954633712768555,
        0.994230329990387
      ],
      "min": [
        0.6721073985099792,
        0.6853029727935791
      ],
      "type": "VEC2"
    },
    {
      "bufferView": 1,
      "byteOffset": 94464,
      "componentType": 5126,
      "count": 166,
      "max": [
        0.9954633712768555,
        0.994230329990387
      ],
      "min": [
        0.6721073985099792,
        0.6853029727935791
      ],
      "type": "VEC2"
    },
    {
      "bufferView": 1,
      "byteOffset": 95792,
      "componentType": 5126,
      "count": 166,
      "max": [
        0.9954633712768555,
        0.994230329990387
      ],
      "min": [
        0.6721073985099792,
        0.6853029727935791
      ],
      "type": "VEC2"
    },
    {
      "bufferView": 1,
      "byteOffset": 97120,
      "componentType": 5126,
      "count": 166,
      "max": [
        0.9954633712768555,
        0.994230329990387
      ],
      "min": [
        0.6721073985099792,
        0.6853029727935791
      ],
      "type": "VEC2"
    },
    {
      "bufferView": 0,
      "byteOffset": 32520,
      "componentType": 5125,
      "count": 462,
      "type": "SCALAR"
    },
    {
      "bufferView": 2,
      "byteOffset": 49224,
      "componentType": 5126,
      "count": 95,
      "max": [
        0.013097111135721207,
        0.0441630482673645,
        0.04416307806968689
      ],
      "min": [
        0.0,
        -0.04416310787200928,
        -0.044163063168525696
      ],
      "type": "VEC3"
    },
    {
      "bufferView": 2,
      "byteOffset": 50364,
      "componentType": 5126,
      "count": 95,
      "max": [
        0.999997615814209,
        1.0,
        1.0
      ],
      "min": [
        -2.879373255382234e-07,
        -1.0,
        -1.0
      ],
      "type": "VEC3"
    },
    {
      "bufferView": 3,
      "byteOffset": 32816,
      "componentType": 5126,
      "count": 95,
      "max": [
        1.0,
        0.8443275690078735,
        0.29855525493621826,
        1.0
      ],
      "min": [
        -1.0,
        -0.9017127156257629,
        -1.0,
        1.0
      ],
      "type": "VEC4"
    },
    {
      "bufferView": 1,
      "byteOffset": 98448,
      "componentType": 5126,
      "count": 95,
      "max": [
        0.9923012852668762,
        0.6706398725509644
      ],
      "min": [
        0.007975832559168339,
        0.006636729463934898
      ],
      "type": "VEC2"
    },
    {
      "bufferView": 1,
      "byteOffset": 99208,
      "componentType": 5126,
      "count": 95,
      "max": [
        0.9849925637245178,
        0.9871344566345215
      ],
      "min": [
        0.012865586206316948,
        0.012865586206316948
      ],
      "type": "VEC2"
    },
    {
      "bufferView": 1,
      "byteOffset": 99968,
      "componentType": 5126,
      "count": 95,
      "max": [
        0.9923012852668762,
        0.6706398725509644
      ],
      "min": [
        0.007975832559168339,
        0.006636729463934898
      ],
      "type": "VEC2"
    },
    {
      "bufferView": 1,
      "byteOffset": 100728,
      "componentType": 5126,
      "count": 95,
      "max": [
        0.9923012852668762,
        0.6706398725509644
      ],
      "min": [
        0.007975832559168339,
        0.006636729463934898
      ],
      "type": "VEC2"
    },
    {
      "bufferView": 1,
      "byteOffset": 101488,
      "componentType": 5126,
      "count": 95,
      "max": [
        0.9923012852668762,
        0.6706398725509644
      ],
      "min": [
        0.007975832559168339,
        0.006636729463934898
      ],
      "type": "VEC2"
    },
    {
      "bufferView": 1,
      "byteOffset": 102248,
      "componentType": 5126,
      "count": 95,
      "max": [
        0.9923012852668762,
        0.6706398725509644
      ],
      "min": [
        0.007975832559168339,
        0.006636729463934898
      ],
      "type": "VEC2"
    },
    {
      "bufferView": 0,
      "byteOffset": 34368,
      "componentType": 5125,
      "count": 276,
      "type": "SCALAR"
    }
  ],
  "asset": {
    "extras": {
      "author": "Nicolai Kilstrup (https://sketchfab.com/nkilstrup)",
      "license": "CC-BY-4.0 (http://creativecommons.org/licenses/by/4.0/)",
      "source": "https://sketchfab.com/3d-models/kitchen-lamps-f045e025b5a14a11890eeb857e6b3ca9",
      "title": "Kitchen Lamps"
    },
    "generator": "Sketchfab-15.10.0",
    "version": "2.0"
  },
  "bufferViews": [
    {
      "buffer": 0,
      "byteLength": 35472,
      "name": "floatBufferViews",
      "target": 34963
    },
    {
      "buffer": 0,
      "byteLength": 103008,
      "byteOffset": 35472,
      "byteStride": 8,
      "name": "floatBufferViews",
      "target": 34962
    },
    {
      "buffer": 0,
      "byteLength": 51504,
      "byteOffset": 138480,
      "byteStride": 12,
      "name": "floatBufferViews",
      "target": 34962
    },
    {
      "buffer": 0,
      "byteLength": 34336,
      "byteOffset": 189984,
      "byteStride": 16,
      "name": "floatBufferViews",
      "target": 34962
    }
  ],
  "buffers": [
    {
      "byteLength": 224320,
      "uri": "scene.bin"
    }
  ],
  "images": [
    {
      "uri": "textures/Lamps_Kitchen_A_baseColor.png"
    },
    {
      "uri": "textures/Lamps_Kitchen_A_metallicRoughness.png"
    },
    {
      "uri": "textures/Lamps_Kitchen_A_emissive.png"
    },
    {
      "uri": "textures/Lamps_Kitchen_A_normal.png"
    }
  ],
  "materials": [
    {
      "doubleSided": true,
      "emissiveFactor": [
        1.0,
        1.0,
        1.0
      ],
      "emissiveTexture": {
        "index": 2
      },
      "name": "Lamps_Kitchen_A",
      "normalTexture": {
        "index": 3
      },
      "occlusionTexture": {
        "index": 1
      },
      "pbrMetallicRoughness": {
        "baseColorTexture": {
          "index": 0
        },
        "metallicRoughnessTexture": {
          "index": 1
        }
      }
    }
  ],
  "meshes": [
    {
      "name": "Object_0",
      "primitives": [
        {
          "attributes": {
            "NORMAL": 1,
            "POSITION": 0,
            "TANGENT": 2,
            "TEXCOORD_0": 3,
            "TEXCOORD_1": 4,
            "TEXCOORD_2": 5,
            "TEXCOORD_3": 6,
            "TEXCOORD_4": 7,
            "TEXCOORD_5": 8
          },
          "indices": 9,
          "material": 0,
          "mode": 4
        }
      ]
    },
    {
      "name": "Object_1",
      "primitives": [
        {
          "attributes": {
            "NORMAL": 11,
            "POSITION": 10,
            "TANGENT": 12,
            "TEXCOORD_0": 13,
            "TEXCOORD_1": 14,
            "TEXCOORD_2": 15,
            "TEXCOORD_3": 16,
            "TEXCOORD_4": 17,
            "TEXCOORD_5": 18
          },
          "indices": 19,
          "material": 0,
          "mode": 4
        }
      ]
    },
    {
      "name": "Object_2",
      "primitives": [
        {
          "attributes": {
            "NORMAL": 21,
            "POSITION": 20,
            "TANGENT": 22,
            "TEXCOORD_0": 23,
            "TEXCOORD_1": 24,
            "TEXCOORD_2": 25,
            "TEXCOORD_3": 26,
            "TEXCOORD_4": 27,
            "TEXCOORD_5": 28
          },
          "indices": 29,
          "material": 0,
          "mode": 4
        }
      ]
    },
    {
      "name": "Object_3",
      "primitives": [
        {
          "attributes": {
            "NORMAL": 31,
            "POSITION": 30,
            "TANGENT": 32,
            "TEXCOORD_0": 33,
            "TEXCOORD_1": 34,
            "TEXCOORD_2": 35,
            "TEXCOORD_3": 36,
            "TEXCOORD_4": 37,
            "TEXCOORD_5": 38
          },
          "indices": 39,
          "material": 0,
          "mode": 4
        }
      ]
    },
    {
      "name": "Object_4",
      "primitives": [
        {
          "attributes": {
            "NORMAL": 41,
            "POSITION": 40,
            "TANGENT": 42,
            "TEXCOORD_0": 43,
            "TEXCOORD_1": 44,
            "TEXCOORD_2": 45,
            "TEXCOORD_3": 46,
            "TEXCOORD_4": 47,
            "TEXCOORD_5": 48
          },
          "indices": 49,
          "material": 0,
          "mode": 4
        }
      ]
    }
  ],
  "nodes": [
    {
      "children": [
        1
      ],
      "matrix": [
        1.0,
        0.0,
        0.0,
        0.0,
        0.0,
        2.220446049250313e-16,
        -1.0,
        0.0,
        0.0,
        1.0,
        2.220446049250313e-16,
        0.0,
        0.0,
        0.0,
        0.0,
        1.0
      ],
      "name": "Sketchfab_model"
    },
    {
      "children": [
        2
      ],
      "name": "root"
    },
    {
      "children": [
        3,
        5,
        7,
        9,
        11
      ],
      "matrix": [
        1.0,
        0.0,
        0.0,
        0.0,
        0.0,
        2.220446049250313e-16,
        1.0,
        0.0,
        0.0,
        -1.0,
        2.220446049250313e-16,
        0.0,
        0.0,
        0.0,
        0.0,
        1.0
      ],
      "name": "GLTF_SceneRootNode"
    },
    {
      "children": [
        4
      ],
      "matrix": [
        1.0,
        0.0,
        0.0,
        0.0,
        0.0,
        1.0,
        0.0,
        0.0,
        0.0,
        0.0,
        1.0,
        0.0,
        0.5,
        0.0,
        0.0,
        1.0
      ],
      "name": "Lamp_Kitchen_B_0"
    },
    {
      "mesh": 0,
      "name": "Object_4"
    },
    {
      "children": [
        6
      ],
      "matrix": [
        1.0,
        0.0,
        0.0,
        0.0,
        0.0,
        1.0,
        0.0,
        0.0,
        0.0,
        0.0,
        1.0,
        0.0,
        -0.5,
        0.0,
        0.0,
        1.0
      ],
      "name": "Lamp_Kitchen_A_1"
    },
    {
      "mesh": 1,
      "name": "Object_6"
    },
    {
      "children": [
        8
      ],
      "matrix": [
        0.0,
        0.0,
        1.0,
        0.0,
        -0.0,
        1.0,
        0.0,
        0.0,
        -1.0,
        0.0,
        0.0,
        0.0,
        -0.5,
        0.5,
        0.0,
        1.0
      ],
      "name": "Powerplug_A_2"
    },
    {
      "mesh": 2,
      "name": "Object_8"
    },
    {
      "children": [
        10
      ],
      "matrix": [
        0.0,
        0.0,
        1.0,
        0.0,
        -0.0,
        1.0,
        0.0,
        0.0,
        -1.0,
        0.0,
        0.0,
        0.0,
        0.0,
        0.5,
        0.0,
        1.0
      ],
      "name": "Powerplug_B_3"
    },
    {
      "mesh": 3,
      "name": "Object_10"
    },
    {
      "children": [
        12
      ],
      "matrix": [
        0.0,
        0.0,
        1.0,
        0.0,
        0.0,
        1.0,
        0.0,
        0.0,
        -1.0,
        0.0,
        0.0,
        0.0,
        0.5,
        0.5,
        0.0,
        1.0
      ],
      "name": "Powerplug_C_4"
    },
    {
      "mesh": 4,
      "name": "Object_12"
    }
  ],
  "samplers": [
    {
      "magFilter": 9729,
      "minFilter": 9987,
      "wrapS": 10497,
      "wrapT": 10497
    }
  ],
  "scene": 0,
  "scenes": [
    {
      "name": "Sketchfab_Scene",
      "nodes": [
        0
      ]
    }
  ],
  "textures": [
    {
      "sampler": 0,
      "source": 0
    },
    {
      "sampler": 0,
      "source": 1
    },
    {
      "sampler": 0,
      "source": 2
    },
    {
      "sampler": 0,
      "source": 3
    }
  ]
}
