{
	"asset":{
		"generator":"Khronos glTF Blender I/O v4.1.63",
		"version":"2.0"
	},
	"extensionsUsed":[
		"KHR_materials_specular",
		"KHR_materials_ior"
	],
	"scene":0,
	"scenes":[
		{
			"name":"Scene",
			"nodes":[
				6
			]
		}
	],
	"nodes":[
		{
			"mesh":0,
			"name":"Object_6"
		},
		{
			"children":[
				0
			],
			"name":"Lamp_0",
			"translation":[
				-2.5216490030288696e-05,
				0.1700000762939453,
				-0.019709544256329536
			]
		},
		{
			"mesh":1,
			"name":"Object_4"
		},
		{
			"children":[
				1,
				2
			],
			"name":"Base_1"
		},
		{
			"children":[
				3
			],
			"name":"GLTF_SceneRootNode",
			"rotation":[
				0.70710688829422,
				0,
				0,
				0.7071066498756409
			]
		},
		{
			"children":[
				4
			],
			"name":"root"
		},
		{
			"children":[
				5
			],
			"name":"Sketchfab_model",
			"rotation":[
				-0.70710688829422,
				0,
				0,
				0.7071066498756409
			],
			"scale":[
				0.10000000149011612,
				0.10000001639127731,
				0.10000001639127731
			]
		}
	],
	"materials":[
		{
			"alphaMode":"BLEND",
			"doubleSided":true,
			"emissiveFactor":[
				1,
				1,
				0.2736559808254242
			],
			"extensions":{
				"KHR_materials_specular":{
					"specularColorFactor":[
						0.6000000238418579,
						0.6000000238418579,
						0.6000000238418579
					]
				},
				"KHR_materials_ior":{
					"ior":1000
				}
			},
			"name":"Lamp.Glass",
			"pbrMetallicRoughness":{
				"baseColorFactor":[
					0.9734391570091248,
					0.8468742370605469,
					0.6938722133636475,
					0.699999988079071
				],
				"metallicFactor":0,
				"roughnessFactor":0.18962691724300385
			}
		},
		{
			"doubleSided":true,
			"extensions":{
				"KHR_materials_specular":{
					"specularColorFactor":[
						0.0,
						0.0,
						0.0
					]
				},
				"KHR_materials_ior":{
					"ior":1000
				}
			},
			"name":"Wood",
			"pbrMetallicRoughness":{
				"baseColorTexture":{
					"index":0
				},
				"metallicFactor":0,
				"roughnessFactor":0.5
			}
		}
	],
	"meshes":[
		{
			"name":"Object_1",
			"primitives":[
				{
					"attributes":{
						"POSITION":0,
						"NORMAL":1,
						"TEXCOORD_0":2
					},
					"indices":3,
					"material":0
				}
			]
		},
		{
			"name":"Object_0",
			"primitives":[
				{
					"attributes":{
						"POSITION":4,
						"NORMAL":5,
						"TEXCOORD_0":6,
						"TEXCOORD_1":7
					},
					"indices":8,
					"material":1
				}
			]
		}
	],
	"textures":[
		{
			"sampler":0,
			"source":0
		}
	],
	"images":[
		{
			"mimeType":"image/jpeg",
			"name":"Wood_diffuse",
			"uri":"Wood_diffuse.jpg"
		}
	],
	"accessors":[
		{
			"bufferView":0,
			"componentType":5126,
			"count":1688,
			"max":[
				3.6668541431427,
				0.20000004768371582,
				7.90927267074585
			],
			"min":[
				-3.6668541431427,
				-0.30000004172325134,
				-7.90927267074585
			],
			"type":"VEC3"
		},
		{
			"bufferView":1,
			"componentType":5126,
			"count":1688,
			"type":"VEC3"
		},
		{
			"bufferView":2,
			"componentType":5126,
			"count":1688,
			"type":"VEC2"
		},
		{
			"bufferView":3,
			"componentType":5123,
			"count":2496,
			"type":"SCALAR"
		},
		{
			"bufferView":4,
			"componentType":5126,
			"count":259,
			"max":[
				3.9861905574798584,
				0.9874482750892639,
				8.248218536376953
			],
			"min":[
				-3.9861905574798584,
				0.18744826316833496,
				-8.248218536376953
			],
			"type":"VEC3"
		},
		{
			"bufferView":5,
			"componentType":5126,
			"count":259,
			"type":"VEC3"
		},
		{
			"bufferView":6,
			"componentType":5126,
			"count":259,
			"type":"VEC2"
		},
		{
			"bufferView":7,
			"componentType":5126,
			"count":259,
			"type":"VEC2"
		},
		{
			"bufferView":8,
			"componentType":5123,
			"count":672,
			"type":"SCALAR"
		}
	],
	"bufferViews":[
		{
			"buffer":0,
			"byteLength":20256,
			"byteOffset":0,
			"target":34962
		},
		{
			"buffer":0,
			"byteLength":20256,
			"byteOffset":20256,
			"target":34962
		},
		{
			"buffer":0,
			"byteLength":13504,
			"byteOffset":40512,
			"target":34962
		},
		{
			"buffer":0,
			"byteLength":4992,
			"byteOffset":54016,
			"target":34963
		},
		{
			"buffer":0,
			"byteLength":3108,
			"byteOffset":59008,
			"target":34962
		},
		{
			"buffer":0,
			"byteLength":3108,
			"byteOffset":62116,
			"target":34962
		},
		{
			"buffer":0,
			"byteLength":2072,
			"byteOffset":65224,
			"target":34962
		},
		{
			"buffer":0,
			"byteLength":2072,
			"byteOffset":67296,
			"target":34962
		},
		{
			"buffer":0,
			"byteLength":1344,
			"byteOffset":69368,
			"target":34963
		}
	],
	"samplers":[
		{
			"magFilter":9729,
			"minFilter":9987
		}
	],
	"buffers":[
		{
			"byteLength":70712,
			"uri":"scene.bin"
		}
	]
}
