{
  "accessors": [
    {
      "bufferView": 2,
      "componentType": 5126,
      "count": 704,
      "max": [
        75.0,
        258.1343688964844,
        75.00004577636719
      ],
      "min": [
        -75.0,
        -292.5664367675781,
        -74.99995422363281
      ],
      "type": "VEC3"
    },
    {
      "bufferView": 2,
      "byteOffset": 8448,
      "componentType": 5126,
      "count": 704,
      "max": [
        1.0,
        0.9530267119407654,
        1.0
      ],
      "min": [
        -1.0,
        -0.9904880523681641,
        -1.0
      ],
      "type": "VEC3"
    },
    {
      "bufferView": 1,
      "componentType": 5126,
      "count": 704,
      "max": [
        275.8221740722656,
        275.65692138671875
      ],
      "min": [
        -274.82220458984375,
        -274.8221740722656
      ],
      "type": "VEC2"
    },
    {
      "bufferView": 0,
      "componentType": 5125,
      "count": 3072,
      "type": "SCALAR"
    },
    {
      "bufferView": 2,
      "byteOffset": 16896,
      "componentType": 5126,
      "count": 632,
      "max": [
        74.52161407470703,
        258.281982421875,
        74.52165985107422
      ],
      "min": [
        -74.52161407470703,
        -292.6376037597656,
        -74.52156829833984
      ],
      "type": "VEC3"
    },
    {
      "bufferView": 2,
      "byteOffset": 24480,
      "componentType": 5126,
      "count": 632,
      "max": [
        1.0,
        0.9530267119407654,
        1.0
      ],
      "min": [
        -1.0,
        -0.9904880523681641,
        -1.0
      ],
      "type": "VEC3"
    },
    {
      "bufferView": 1,
      "byteOffset": 5632,
      "componentType": 5126,
      "count": 632,
      "max": [
        275.9598083496094,
        275.9598083496094
      ],
      "min": [
        -274.9598083496094,
        -274.95977783203125
      ],
      "type": "VEC2"
    },
    {
      "bufferView": 0,
      "byteOffset": 12288,
      "componentType": 5125,
      "count": 2688,
      "type": "SCALAR"
    },
    {
      "bufferView": 2,
      "byteOffset": 32064,
      "componentType": 5126,
      "count": 410,
      "max": [
        17.421875,
        163.7098388671875,
        17.42185401916504
      ],
      "min": [
        -17.421875,
        134.12759399414063,
        -17.42190170288086
      ],
      "type": "VEC3"
    },
    {
      "bufferView": 2,
      "byteOffset": 36984,
      "componentType": 5126,
      "count": 410,
      "max": [
        1.0,
        1.0,
        1.0
      ],
      "min": [
        -1.0,
        -1.0,
        -1.0
      ],
      "type": "VEC3"
    },
    {
      "bufferView": 1,
      "byteOffset": 10688,
      "componentType": 5126,
      "count": 410,
      "max": [
        181.38766479492188,
        181.38766479492188
      ],
      "min": [
        -180.38766479492188,
        -16.921947479248047
      ],
      "type": "VEC2"
    },
    {
      "bufferView": 0,
      "byteOffset": 23040,
      "componentType": 5125,
      "count": 1920,
      "type": "SCALAR"
    },
    {
      "bufferView": 2,
      "byteOffset": 41904,
      "componentType": 5126,
      "count": 406,
      "max": [
        6.5,
        7.500000953674316,
        6.500001430511475
      ],
      "min": [
        -6.5,
        -7.500000953674316,
        -6.500001430511475
      ],
      "type": "VEC3"
    },
    {
      "bufferView": 2,
      "byteOffset": 46776,
      "componentType": 5126,
      "count": 406,
      "max": [
        1.0,
        1.0,
        1.0
      ],
      "min": [
        -1.0,
        -1.0,
        -1.0
      ],
      "type": "VEC3"
    },
    {
      "bufferView": 1,
      "byteOffset": 13968,
      "componentType": 5126,
      "count": 406,
      "max": [
        8.000001907348633,
        8.000001907348633
      ],
      "min": [
        -7.000001907348633,
        -7.000001907348633
      ],
      "type": "VEC2"
    },
    {
      "bufferView": 0,
      "byteOffset": 30720,
      "componentType": 5125,
      "count": 1584,
      "type": "SCALAR"
    },
    {
      "bufferView": 2,
      "byteOffset": 51648,
      "componentType": 5126,
      "count": 229,
      "max": [
        5.8802289962768555,
        1.9408553838729858,
        1.7988401651382446
      ],
      "min": [
        3.534681558609009,
        -1.7952202558517456,
        -1.7988401651382446
      ],
      "type": "VEC3"
    },
    {
      "bufferView": 2,
      "byteOffset": 54396,
      "componentType": 5126,
      "count": 229,
      "max": [
        1.0,
        1.0,
        1.0
      ],
      "min": [
        -0.007513961289077997,
        -1.0,
        -1.0
      ],
      "type": "VEC3"
    },
    {
      "bufferView": 1,
      "byteOffset": 17216,
      "componentType": 5126,
      "count": 229,
      "max": [
        6.380229473114014,
        2.298840045928955
      ],
      "min": [
        -5.380229473114014,
        -1.2988401651382446
      ],
      "type": "VEC2"
    },
    {
      "bufferView": 0,
      "byteOffset": 37056,
      "componentType": 5125,
      "count": 840,
      "type": "SCALAR"
    },
    {
      "bufferView": 2,
      "byteOffset": 57144,
      "componentType": 5126,
      "count": 24,
      "max": [
        3.0,
        190.02334594726563,
        3.0000176429748535
      ],
      "min": [
        -3.0,
        -337.15423583984375,
        -3.0
      ],
      "type": "VEC3"
    },
    {
      "bufferView": 2,
      "byteOffset": 57432,
      "componentType": 5126,
      "count": 24,
      "max": [
        1.0,
        3.3471604155010937e-08,
        1.0
      ],
      "min": [
        -1.0,
        -3.3471607707724615e-08,
        -1.0
      ],
      "type": "VEC3"
    },
    {
      "bufferView": 1,
      "byteOffset": 19048,
      "componentType": 5126,
      "count": 24,
      "max": [
        264.08880615234375,
        264.08880615234375
      ],
      "min": [
        -263.08880615234375,
        -263.08880615234375
      ],
      "type": "VEC2"
    },
    {
      "bufferView": 0,
      "byteOffset": 40416,
      "componentType": 5125,
      "count": 48,
      "type": "SCALAR"
    },
    {
      "bufferView": 2,
      "byteOffset": 57720,
      "componentType": 5126,
      "count": 342,
      "max": [
        36.0,
        12.500005722045898,
        36.0
      ],
      "min": [
        -36.0,
        -12.500005722045898,
        -36.000003814697266
      ],
      "type": "VEC3"
    },
    {
      "bufferView": 2,
      "byteOffset": 61824,
      "componentType": 5126,
      "count": 342,
      "max": [
        1.0,
        1.0,
        1.0
      ],
      "min": [
        -1.0,
        -1.0,
        -1.0
      ],
      "type": "VEC3"
    },
    {
      "bufferView": 1,
      "byteOffset": 19240,
      "componentType": 5126,
      "count": 342,
      "max": [
        36.499996185302734,
        36.5
      ],
      "min": [
        -35.500003814697266,
        -35.5
      ],
      "type": "VEC2"
    },
    {
      "bufferView": 0,
      "byteOffset": 40608,
      "componentType": 5125,
      "count": 1536,
      "type": "SCALAR"
    },
    {
      "bufferView": 2,
      "byteOffset": 65928,
      "componentType": 5126,
      "count": 174,
      "max": [
        5.140625,
        139.30470275878906,
        5.1406354904174805
      ],
      "min": [
        -5.140625,
        -63.249664306640625,
        -5.140647888183594
      ],
      "type": "VEC3"
    },
    {
      "bufferView": 2,
      "byteOffset": 68016,
      "componentType": 5126,
      "count": 174,
      "max": [
        1.0,
        1.0,
        1.0
      ],
      "min": [
        -1.0,
        -1.0,
        -1.0
      ],
      "type": "VEC3"
    },
    {
      "bufferView": 1,
      "byteOffset": 21976,
      "componentType": 5126,
      "count": 174,
      "max": [
        101.77718353271484,
        101.77718353271484
      ],
      "min": [
        -100.77718353271484,
        -100.77718353271484
      ],
      "type": "VEC2"
    },
    {
      "bufferView": 0,
      "byteOffset": 46752,
      "componentType": 5125,
      "count": 720,
      "type": "SCALAR"
    },
    {
      "bufferView": 2,
      "byteOffset": 70104,
      "componentType": 5126,
      "count": 921,
      "max": [
        25.073257446289063,
        25.073257446289063,
        71.9591293334961
      ],
      "min": [
        -25.073257446289063,
        -25.073257446289063,
        15.826194763183594
      ],
      "type": "VEC3"
    },
    {
      "bufferView": 2,
      "byteOffset": 81156,
      "componentType": 5126,
      "count": 921,
      "max": [
        0.9999991655349731,
        0.9999991655349731,
        1.0
      ],
      "min": [
        -0.9999991655349731,
        -0.9999991655349731,
        -1.0
      ],
      "type": "VEC3"
    },
    {
      "bufferView": 1,
      "byteOffset": 23368,
      "componentType": 5126,
      "count": 921,
      "max": [
        120.5205307006836,
        126.8266830444336
      ],
      "min": [
        -67.72432708740234,
        -62.14578628540039
      ],
      "type": "VEC2"
    },
    {
      "bufferView": 0,
      "byteOffset": 49632,
      "componentType": 5125,
      "count": 3792,
      "type": "SCALAR"
    },
    {
      "bufferView": 2,
      "byteOffset": 92208,
      "componentType": 5126,
      "count": 536,
      "max": [
        6.8634538650512695,
        6.871025562286377,
        67.68490600585938
      ],
      "min": [
        -6.8785905838012695,
        -6.87101936340332,
        16.549236297607422
      ],
      "type": "VEC3"
    },
    {
      "bufferView": 2,
      "byteOffset": 98640,
      "componentType": 5126,
      "count": 536,
      "max": [
        0.9982074499130249,
        0.9982074499130249,
        0.7545500993728638
      ],
      "min": [
        -0.9982074499130249,
        -0.9982074499130249,
        -0.7545500993728638
      ],
      "type": "VEC3"
    },
    {
      "bufferView": 1,
      "byteOffset": 30736,
      "componentType": 5126,
      "count": 536,
      "max": [
        122.71833038330078,
        129.32431030273438
      ],
      "min": [
        -67.72432708740234,
        -62.14578628540039
      ],
      "type": "VEC2"
    },
    {
      "bufferView": 0,
      "byteOffset": 64800,
      "componentType": 5125,
      "count": 2136,
      "type": "SCALAR"
    },
    {
      "bufferView": 2,
      "byteOffset": 105072,
      "componentType": 5126,
      "count": 512,
      "max": [
        6.995725154876709,
        7.0032958984375,
        65.94139862060547
      ],
      "min": [
        -7.010861873626709,
        -7.00329065322876,
        37.386558532714844
      ],
      "type": "VEC3"
    },
    {
      "bufferView": 2,
      "byteOffset": 111216,
      "componentType": 5126,
      "count": 512,
      "max": [
        0.9996927976608276,
        0.9996927976608276,
        0.9969944357872009
      ],
      "min": [
        -0.9996927976608276,
        -0.9996927380561829,
        -0.9969955086708069
      ],
      "type": "VEC3"
    },
    {
      "bufferView": 1,
      "byteOffset": 35024,
      "componentType": 5126,
      "count": 512,
      "max": [
        -13.80923080444336,
        5.901451110839844
      ],
      "min": [
        -64.29170227050781,
        -62.14578628540039
      ],
      "type": "VEC2"
    },
    {
      "bufferView": 0,
      "byteOffset": 73344,
      "componentType": 5125,
      "count": 2304,
      "type": "SCALAR"
    },
    {
      "bufferView": 2,
      "byteOffset": 117360,
      "componentType": 5126,
      "count": 253,
      "max": [
        13.26885986328125,
        13.269165992736816,
        25.475341796875
      ],
      "min": [
        -13.26947021484375,
        -13.26915168762207,
        0.00048828125
      ],
      "type": "VEC3"
    },
    {
      "bufferView": 2,
      "byteOffset": 120396,
      "componentType": 5126,
      "count": 253,
      "max": [
        1.0,
        1.0,
        1.0
      ],
      "min": [
        -1.0,
        -1.0,
        -1.0
      ],
      "type": "VEC3"
    },
    {
      "bufferView": 1,
      "byteOffset": 39120,
      "componentType": 5126,
      "count": 253,
      "max": [
        43.97638702392578,
        126.78911590576172
      ],
      "min": [
        -11.944221496582031,
        -62.14578628540039
      ],
      "type": "VEC2"
    },
    {
      "bufferView": 0,
      "byteOffset": 82560,
      "componentType": 5125,
      "count": 1248,
      "type": "SCALAR"
    }
  ],
  "asset": {
    "extras": {
      "author": "LIGHTSTAR GROUP (https://sketchfab.com/LIGHT_STAR_GROUP)",
      "license": "CC-BY-4.0 (http://creativecommons.org/licenses/by/4.0/)",
      "source": "https://sketchfab.com/3d-models/816313-dumo-lightstar-hanging-lamp-01fbf761eccb45429058f4833c57a1cb",
      "title": "816313 Dumo Lightstar hanging lamp"
    },
    "generator": "Sketchfab-15.55.0",
    "version": "2.0"
  },
  "bufferViews": [
    {
      "buffer": 0,
      "byteLength": 87552,
      "name": "floatBufferViews",
      "target": 34963
    },
    {
      "buffer": 0,
      "byteLength": 41144,
      "byteOffset": 87552,
      "byteStride": 8,
      "name": "floatBufferViews",
      "target": 34962
    },
    {
      "buffer": 0,
      "byteLength": 123432,
      "byteOffset": 128696,
      "byteStride": 12,
      "name": "floatBufferViews",
      "target": 34962
    }
  ],
  "buffers": [
    {
      "byteLength": 252128,
      "uri": "scene.bin"
    }
  ],
  "extensionsUsed": [
    "KHR_materials_emissive_strength"
  ],
  "materials": [
    {
      "doubleSided": true,
      "name": "Paint_Black",
      "pbrMetallicRoughness": {
        "baseColorFactor": [
          0.6053283849968216,
          0.3497645436053074,
          0.2236972643077284,
          1.0
        ],
        "roughnessFactor": 0.5
      }
    },
    {
      "doubleSided": true,
      "name": "Paint_White",
      "pbrMetallicRoughness": {
        "metallicFactor": 0.0,
        "roughnessFactor": 0.6
      }
    },
    {
      "doubleSided": true,
      "name": "Metal_shampan_mat",
      "pbrMetallicRoughness": {
        "baseColorFactor": [
          0.0,
          0.0,
          0.0,
          1.0
        ],
        "metallicFactor": 0.0,
        "roughnessFactor": 0.6
      }
    },
    {
      "doubleSided": true,
      "emissiveFactor": [
        1.0,
        1.0,
        1.0
      ],
      "extensions": {
        "KHR_materials_emissive_strength": {
          "emissiveStrength": 10.0
        }
      },
      "name": "Glass_Clear_Fog_green",
      "pbrMetallicRoughness": {
        "metallicFactor": 0.0,
        "roughnessFactor": 0.6
      }
    },
    {
      "doubleSided": true,
      "name": "Metal_Chrom_Satin_dark",
      "pbrMetallicRoughness": {
        "baseColorFactor": [
          0.7860523867719753,
          0.7860523867719753,
          0.7860523867719753,
          1.0
        ],
        "roughnessFactor": 0.6
      }
    },
    {
      "doubleSided": true,
      "emissiveFactor": [
        1.0,
        1.0,
        1.0
      ],
      "extensions": {
        "KHR_materials_emissive_strength": {
          "emissiveStrength": 10.0
        }
      },
      "name": "Yelow_LED_ceramika",
      "pbrMetallicRoughness": {
        "metallicFactor": 0.0,
        "roughnessFactor": 0.6
      }
    },
    {
      "doubleSided": true,
      "name": "Metal_chrom_beg",
      "pbrMetallicRoughness": {
        "baseColorFactor": [
          0.73133082830199,
          0.73133082830199,
          0.73133082830199,
          1.0
        ],
        "roughnessFactor": 0.6
      }
    }
  ],
  "meshes": [
    {
      "name": "Rectangle042_Paint_Black_0",
      "primitives": [
        {
          "attributes": {
            "NORMAL": 1,
            "POSITION": 0,
            "TEXCOORD_0": 2
          },
          "indices": 3,
          "material": 0,
          "mode": 4
        }
      ]
    },
    {
      "name": "Rectangle042_Paint_White_0",
      "primitives": [
        {
          "attributes": {
            "NORMAL": 5,
            "POSITION": 4,
            "TEXCOORD_0": 6
          },
          "indices": 7,
          "material": 1,
          "mode": 4
        }
      ]
    },
    {
      "name": "Rectangle042_Metal_shampan_mat_0",
      "primitives": [
        {
          "attributes": {
            "NORMAL": 9,
            "POSITION": 8,
            "TEXCOORD_0": 10
          },
          "indices": 11,
          "material": 2,
          "mode": 4
        }
      ]
    },
    {
      "name": "Rectangle044_Paint_Black_0",
      "primitives": [
        {
          "attributes": {
            "NORMAL": 13,
            "POSITION": 12,
            "TEXCOORD_0": 14
          },
          "indices": 15,
          "material": 0,
          "mode": 4
        }
      ]
    },
    {
      "name": "Rectangle044_Paint_White_0",
      "primitives": [
        {
          "attributes": {
            "NORMAL": 17,
            "POSITION": 16,
            "TEXCOORD_0": 18
          },
          "indices": 19,
          "material": 1,
          "mode": 4
        }
      ]
    },
    {
      "name": "Line001_Paint_Black_0",
      "primitives": [
        {
          "attributes": {
            "NORMAL": 21,
            "POSITION": 20,
            "TEXCOORD_0": 22
          },
          "indices": 23,
          "material": 0,
          "mode": 4
        }
      ]
    },
    {
      "name": "Rectangle043_Paint_Black_0",
      "primitives": [
        {
          "attributes": {
            "NORMAL": 25,
            "POSITION": 24,
            "TEXCOORD_0": 26
          },
          "indices": 27,
          "material": 0,
          "mode": 4
        }
      ]
    },
    {
      "name": "Shape001_Paint_Black_0",
      "primitives": [
        {
          "attributes": {
            "NORMAL": 29,
            "POSITION": 28,
            "TEXCOORD_0": 30
          },
          "indices": 31,
          "material": 0,
          "mode": 4
        }
      ]
    },
    {
      "name": "Bulb_E27_Shar_led_002_Glass_Clear_Fog_green_0",
      "primitives": [
        {
          "attributes": {
            "NORMAL": 33,
            "POSITION": 32,
            "TEXCOORD_0": 34
          },
          "indices": 35,
          "material": 3,
          "mode": 4
        }
      ]
    },
    {
      "name": "Bulb_E27_Shar_led_002_Metal_Chrom_Satin_dark_0",
      "primitives": [
        {
          "attributes": {
            "NORMAL": 37,
            "POSITION": 36,
            "TEXCOORD_0": 38
          },
          "indices": 39,
          "material": 4,
          "mode": 4
        }
      ]
    },
    {
      "name": "Bulb_E27_Shar_led_002_Yelow_LED_ceramika_0",
      "primitives": [
        {
          "attributes": {
            "NORMAL": 41,
            "POSITION": 40,
            "TEXCOORD_0": 42
          },
          "indices": 43,
          "material": 5,
          "mode": 4
        }
      ]
    },
    {
      "name": "Bulb_E27_Shar_led_002_Metal_chrom_beg_0",
      "primitives": [
        {
          "attributes": {
            "NORMAL": 45,
            "POSITION": 44,
            "TEXCOORD_0": 46
          },
          "indices": 47,
          "material": 6,
          "mode": 4
        }
      ]
    }
  ],
  "nodes": [
    {
      "children": [
        1
      ],
      "matrix": [
        1.0,
        0.0,
        0.0,
        0.0,
        0.0,
        2.220446049250313e-16,
        -1.0,
        0.0,
        0.0,
        1.0,
        2.220446049250313e-16,
        0.0,
        0.0,
        0.0,
        0.0,
        1.0
      ],
      "name": "Sketchfab_model"
    },
    {
      "children": [
        2
      ],
      "matrix": [
        1.0,
        0.0,
        0.0,
        0.0,
        0.0,
        0.0,
        1.0,
        0.0,
        0.0,
        -1.0,
        0.0,
        0.0,
        0.0,
        0.0,
        0.0,
        1.0
      ],
      "name": "5eac70f5c6ad49f2a0279dcf08b571ed.fbx"
    },
    {
      "children": [
        3,
        7,
        10,
        12,
        14,
        16
      ],
      "name": "RootNode"
    },
    {
      "children": [
        4,
        5,
        6
      ],
      "matrix": [
        1.0,
        0.0,
        0.0,
        0.0,
        0.0,
        0.9999999999999867,
        1.6292068494294582e-07,
        0.0,
        0.0,
        -1.6292068494294582e-07,
        0.9999999999999867,
        0.0,
        0.0,
        -213.666259765625,
        2.6729267119662836e-06,
        1.0
      ],
      "name": "Rectangle042"
    },
    {
      "mesh": 0,
      "name": "Rectangle042_Paint_Black_0"
    },
    {
      "mesh": 1,
      "name": "Rectangle042_Paint_White_0"
    },
    {
      "mesh": 2,
      "name": "Rectangle042_Metal_shampan_mat_0"
    },
    {
      "children": [
        8,
        9
      ],
      "matrix": [
        1.0,
        0.0,
        0.0,
        0.0,
        0.0,
        0.9999999999999867,
        1.6292068494294582e-07,
        0.0,
        0.0,
        -1.6292068494294582e-07,
        0.9999999999999867,
        0.0,
        0.0,
        473.765380859375,
        3.272151661803946e-05,
        1.0
      ],
      "name": "Rectangle044"
    },
    {
      "mesh": 3,
      "name": "Rectangle044_Paint_Black_0"
    },
    {
      "mesh": 4,
      "name": "Rectangle044_Paint_White_0"
    },
    {
      "children": [
        11
      ],
      "matrix": [
        1.0,
        0.0,
        0.0,
        0.0,
        0.0,
        0.9999999999999867,
        1.6292068494294582e-07,
        0.0,
        0.0,
        -1.6292068494294582e-07,
        0.9999999999999867,
        0.0,
        0.0,
        286.020751953125,
        2.4514938559150323e-05,
        1.0
      ],
      "name": "Line001"
    },
    {
      "mesh": 5,
      "name": "Line001_Paint_Black_0"
    },
    {
      "children": [
        13
      ],
      "matrix": [
        1.0,
        0.0,
        0.0,
        0.0,
        0.0,
        0.9999999999999867,
        1.6292068494294582e-07,
        0.0,
        0.0,
        -1.6292068494294582e-07,
        0.9999999999999867,
        0.0,
        0.0,
        493.76824951171875,
        3.359586844453588e-05,
        1.0
      ],
      "name": "Rectangle043"
    },
    {
      "mesh": 6,
      "name": "Rectangle043_Paint_Black_0"
    },
    {
      "children": [
        15
      ],
      "matrix": [
        1.0,
        0.0,
        0.0,
        0.0,
        0.0,
        0.9999999999999867,
        1.6292068494294582e-07,
        0.0,
        0.0,
        -1.6292068494294582e-07,
        0.9999999999999867,
        0.0,
        0.0,
        -213.666259765625,
        2.6729267119662836e-06,
        1.0
      ],
      "name": "Shape001"
    },
    {
      "mesh": 7,
      "name": "Shape001_Paint_Black_0"
    },
    {
      "children": [
        17
      ],
      "matrix": [
        -0.9999999999999885,
        -1.5099580265055072e-07,
        -1.2246469849340659e-16,
        0.0,
        1.2246464555384738e-16,
        4.440892098500626e-16,
        -0.9999999999999998,
        0.0,
        1.5099580265055072e-07,
        -0.9999999999999885,
        -2.220446049250313e-16,
        0.0,
        0.0,
        -327.53094482421875,
        -1.5386412997031584e-05,
        1.0
      ],
      "name": "Bulb_E27_Shar_led_002"
    },
    {
      "children": [
        18,
        19,
        20,
        21
      ],
      "matrix": [
        1.0,
        0.0,
        -0.0,
        0.0,
        0.0,
        1.0,
        0.0,
        0.0,
        0.0,
        0.0,
        1.0,
        0.0,
        0.0,
        6.786764856769878e-07,
        -51.50320053100586,
        1.0
      ],
      "name": "Object_17"
    },
    {
      "mesh": 8,
      "name": "Bulb_E27_Shar_led_002_Glass_Clear_Fog_green_0"
    },
    {
      "mesh": 9,
      "name": "Bulb_E27_Shar_led_002_Metal_Chrom_Satin_dark_0"
    },
    {
      "mesh": 10,
      "name": "Bulb_E27_Shar_led_002_Yelow_LED_ceramika_0"
    },
    {
      "mesh": 11,
      "name": "Bulb_E27_Shar_led_002_Metal_chrom_beg_0"
    }
  ],
  "scene": 0,
  "scenes": [
    {
      "name": "Sketchfab_Scene",
      "nodes": [
        0
      ]
    }
  ]
}
