{
	"asset":{
		"generator":"Khronos glTF Blender I/O v4.1.63",
		"version":"2.0"
	},
	"scene":0,
	"scenes":[
		{
			"name":"Scene",
			"nodes":[
				4
			]
		}
	],
	"nodes":[
		{
			"mesh":0,
			"name":"Object_6",
			"translation":[
				0.4507971704006195,
				1.2441308498382568,
				0
			]
		},
		{
			"children":[
				0
			],
			"name":"Lamp_Kitchen_A_1",
			"translation":[
				-0.5,
				0,
				0
			]
		},
		{
			"children":[
				1
			],
			"name":"GLTF_SceneRootNode",
			"rotation":[
				0.70710688829422,
				0,
				0,
				0.7071066498756409
			]
		},
		{
			"children":[
				2
			],
			"name":"root"
		},
		{
			"children":[
				3
			],
			"name":"Sketchfab_model",
			"rotation":[
				-0.70710688829422,
				0,
				0,
				0.7071066498756409
			]
		}
	],
	"materials":[
		{
			"doubleSided":true,
			"emissiveFactor":[
				1,
				1,
				1
			],
			"emissiveTexture":{
				"index":0
			},
			"name":"Lamps_Kitchen_A",
			"normalTexture":{
				"index":1
			},
			"occlusionTexture":{
				"index":2
			},
			"pbrMetallicRoughness":{
				"baseColorTexture":{
					"index":3
				},
				"metallicRoughnessTexture":{
					"index":2
				}
			}
		}
	],
	"meshes":[
		{
			"name":"Object_1",
			"primitives":[
				{
					"attributes":{
						"POSITION":0,
						"NORMAL":1,
						"TEXCOORD_0":2,
						"TEXCOORD_1":3,
						"TEXCOORD_2":4,
						"TEXCOORD_3":5,
						"TEXCOORD_4":6,
						"TEXCOORD_5":7
					},
					"indices":8,
					"material":0
				}
			]
		}
	],
	"textures":[
		{
			"sampler":0,
			"source":0
		},
		{
			"sampler":0,
			"source":1
		},
		{
			"sampler":0,
			"source":2
		},
		{
			"sampler":0,
			"source":3
		}
	],
	"images":[
		{
			"mimeType":"image/png",
			"name":"Lamps_Kitchen_A_emissive",
			"uri":"Lamps_Kitchen_A_emissive.png"
		},
		{
			"mimeType":"image/png",
			"name":"Lamps_Kitchen_A_normal",
			"uri":"Lamps_Kitchen_A_normal.png"
		},
		{
			"mimeType":"image/png",
			"name":"Lamps_Kitchen_A_metallicRoughness",
			"uri":"Lamps_Kitchen_A_metallicRoughness.png"
		},
		{
			"mimeType":"image/png",
			"name":"Lamps_Kitchen_A_baseColor",
			"uri":"Lamps_Kitchen_A_baseColor.png"
		}
	],
	"accessors":[
		{
			"bufferView":0,
			"componentType":5126,
			"count":990,
			"max":[
				0.32887527346611023,
				-0.00013834238052368164,
				0.32887545228004456
			],
			"min":[
				-0.3288753032684326,
				-1.0107392072677612,
				-0.3288751244544983
			],
			"type":"VEC3"
		},
		{
			"bufferView":1,
			"componentType":5126,
			"count":990,
			"type":"VEC3"
		},
		{
			"bufferView":2,
			"componentType":5126,
			"count":990,
			"type":"VEC2"
		},
		{
			"bufferView":3,
			"componentType":5126,
			"count":990,
			"type":"VEC2"
		},
		{
			"bufferView":4,
			"componentType":5126,
			"count":990,
			"type":"VEC2"
		},
		{
			"bufferView":5,
			"componentType":5126,
			"count":990,
			"type":"VEC2"
		},
		{
			"bufferView":6,
			"componentType":5126,
			"count":990,
			"type":"VEC2"
		},
		{
			"bufferView":7,
			"componentType":5126,
			"count":990,
			"type":"VEC2"
		},
		{
			"bufferView":8,
			"componentType":5123,
			"count":4746,
			"type":"SCALAR"
		}
	],
	"bufferViews":[
		{
			"buffer":0,
			"byteLength":11880,
			"byteOffset":0,
			"target":34962
		},
		{
			"buffer":0,
			"byteLength":11880,
			"byteOffset":11880,
			"target":34962
		},
		{
			"buffer":0,
			"byteLength":7920,
			"byteOffset":23760,
			"target":34962
		},
		{
			"buffer":0,
			"byteLength":7920,
			"byteOffset":31680,
			"target":34962
		},
		{
			"buffer":0,
			"byteLength":7920,
			"byteOffset":39600,
			"target":34962
		},
		{
			"buffer":0,
			"byteLength":7920,
			"byteOffset":47520,
			"target":34962
		},
		{
			"buffer":0,
			"byteLength":7920,
			"byteOffset":55440,
			"target":34962
		},
		{
			"buffer":0,
			"byteLength":7920,
			"byteOffset":63360,
			"target":34962
		},
		{
			"buffer":0,
			"byteLength":9492,
			"byteOffset":71280,
			"target":34963
		}
	],
	"samplers":[
		{
			"magFilter":9729,
			"minFilter":9987
		}
	],
	"buffers":[
		{
			"byteLength":80772,
			"uri":"scene.bin"
		}
	]
}
