{
	"asset":{
		"generator":"Khronos glTF Blender I/O v4.1.63",
		"version":"2.0"
	},
	"scene":0,
	"scenes":[
		{
			"name":"Scene",
			"nodes":[
				6,
				8,
				9,
				10,
				11,
				12
			]
		}
	],
	"nodes":[
		{
			"name":"Door",
			"rotation":[
				0,
				0,
				-1,
				4.371138828673793e-08
			],
			"scale":[
				0.5400469303131104,
				0.5400469303131104,
				0.5400469303131104
			],
			"translation":[
				0,
				0.8954204320907593,
				-0.6442285180091858
			]
		},
		{
			"name":"Door left"
		},
		{
			"name":"Door Right"
		},
		{
			"children":[
				0,
				1,
				2
			],
			"name":"RootNode"
		},
		{
			"children":[
				3
			],
			"name":"Object_2"
		},
		{
			"children":[
				4
			],
			"name":"DoorAnimated.fbx",
			"rotation":[
				0.70710688829422,
				0,
				0,
				0.7071066498756409
			]
		},
		{
			"children":[
				5
			],
			"name":"Sketchfab_model",
			"rotation":[
				-0.70710688829422,
				0,
				0,
				0.7071066498756409
			]
		},
		{
			"mesh":0,
			"name":"Jamb_Door_0",
			"rotation":[
				-0.4976327121257782,
				-0.5021723508834839,
				-0.49972692131996155,
				0.5004574060440063
			],
			"translation":[
				-0.03230668976902962,
				1.0223947763442993,
				-0.001861117547377944
			]
		},
		{
			"children":[
				7
			],
			"name":"Jamb",
			"rotation":[
				-0.5,
				-0.49999985098838806,
				0.5000000596046448,
				0.5000002384185791
			],
			"scale":[
				1.8516912460327148,
				1.8598732948303223,
				1.8516910076141357
			],
			"translation":[
				-0.010048064403235912,
				0.030850637704133987,
				1.8883347511291504
			]
		},
		{
			"mesh":1,
			"name":"Object_16",
			"translation":[
				-0.17000000178813934,
				1.4162306785583496,
				0.6683239340782166
			]
		},
		{
			"mesh":2,
			"name":"Object_18",
			"translation":[
				-0.17499999701976776,
				1.418973684310913,
				-0.7017948627471924
			]
		},
		{
			"name":"Object_15"
		},
		{
			"name":"Object_17"
		}
	],
	"materials":[
		{
			"doubleSided":true,
			"name":"Door.001",
			"occlusionTexture":{
				"index":0
			},
			"pbrMetallicRoughness":{
				"baseColorTexture":{
					"index":1
				},
				"metallicRoughnessTexture":{
					"index":0
				}
			}
		}
	],
	"meshes":[
		{
			"name":"Jamb_Door_0.001",
			"primitives":[
				{
					"attributes":{
						"POSITION":0,
						"NORMAL":1,
						"TEXCOORD_0":2
					},
					"indices":3,
					"material":0
				}
			]
		},
		{
			"name":"Door Right_Door_0.001",
			"primitives":[
				{
					"attributes":{
						"POSITION":4,
						"NORMAL":5,
						"TEXCOORD_0":6
					},
					"indices":7,
					"material":0
				}
			]
		},
		{
			"name":"Door left_Door_0.001",
			"primitives":[
				{
					"attributes":{
						"POSITION":8,
						"NORMAL":9,
						"TEXCOORD_0":10
					},
					"indices":11,
					"material":0
				}
			]
		}
	],
	"textures":[
		{
			"sampler":0,
			"source":0
		},
		{
			"sampler":0,
			"source":1
		}
	],
	"images":[
		{
			"mimeType":"image/png",
			"name":"Door_metallicRoughness",
			"uri":"Door_metallicRoughness.png"
		},
		{
			"mimeType":"image/png",
			"name":"Door_baseColor",
			"uri":"Door_baseColor.png"
		}
	],
	"accessors":[
		{
			"bufferView":0,
			"componentType":5126,
			"count":636,
			"max":[
				0.1583210974931717,
				2.3358771800994873,
				0.8506664633750916
			],
			"min":[
				-0.12858712673187256,
				0.0018512606620788574,
				-0.8506494760513306
			],
			"type":"VEC3"
		},
		{
			"bufferView":1,
			"componentType":5126,
			"count":636,
			"type":"VEC3"
		},
		{
			"bufferView":2,
			"componentType":5126,
			"count":636,
			"type":"VEC2"
		},
		{
			"bufferView":3,
			"componentType":5123,
			"count":1830,
			"type":"SCALAR"
		},
		{
			"bufferView":4,
			"componentType":5126,
			"count":4056,
			"max":[
				0.24124930799007416,
				2.842440605163574,
				0.8298302292823792
			],
			"min":[
				-0.14390335977077484,
				-1.4199756383895874,
				-0.7232287526130676
			],
			"type":"VEC3"
		},
		{
			"bufferView":5,
			"componentType":5126,
			"count":4056,
			"type":"VEC3"
		},
		{
			"bufferView":6,
			"componentType":5126,
			"count":4056,
			"type":"VEC2"
		},
		{
			"bufferView":7,
			"componentType":5123,
			"count":10158,
			"type":"SCALAR"
		},
		{
			"bufferView":8,
			"componentType":5126,
			"count":3715,
			"max":[
				0.22854910790920258,
				2.8448712825775146,
				0.6838310956954956
			],
			"min":[
				-0.13942775130271912,
				-1.413076639175415,
				-0.8264861702919006
			],
			"type":"VEC3"
		},
		{
			"bufferView":9,
			"componentType":5126,
			"count":3715,
			"type":"VEC3"
		},
		{
			"bufferView":10,
			"componentType":5126,
			"count":3715,
			"type":"VEC2"
		},
		{
			"bufferView":11,
			"componentType":5123,
			"count":9660,
			"type":"SCALAR"
		}
	],
	"bufferViews":[
		{
			"buffer":0,
			"byteLength":7632,
			"byteOffset":0,
			"target":34962
		},
		{
			"buffer":0,
			"byteLength":7632,
			"byteOffset":7632,
			"target":34962
		},
		{
			"buffer":0,
			"byteLength":5088,
			"byteOffset":15264,
			"target":34962
		},
		{
			"buffer":0,
			"byteLength":3660,
			"byteOffset":20352,
			"target":34963
		},
		{
			"buffer":0,
			"byteLength":48672,
			"byteOffset":24012,
			"target":34962
		},
		{
			"buffer":0,
			"byteLength":48672,
			"byteOffset":72684,
			"target":34962
		},
		{
			"buffer":0,
			"byteLength":32448,
			"byteOffset":121356,
			"target":34962
		},
		{
			"buffer":0,
			"byteLength":20316,
			"byteOffset":153804,
			"target":34963
		},
		{
			"buffer":0,
			"byteLength":44580,
			"byteOffset":174120,
			"target":34962
		},
		{
			"buffer":0,
			"byteLength":44580,
			"byteOffset":218700,
			"target":34962
		},
		{
			"buffer":0,
			"byteLength":29720,
			"byteOffset":263280,
			"target":34962
		},
		{
			"buffer":0,
			"byteLength":19320,
			"byteOffset":293000,
			"target":34963
		}
	],
	"samplers":[
		{
			"magFilter":9729,
			"minFilter":9987
		}
	],
	"buffers":[
		{
			"byteLength":312320,
			"uri":"scene.bin"
		}
	]
}
