{
  "accessors": [
    {
      "bufferView": 1,
      "componentType": 5126,
      "count": 65532,
      "max": [
        106.38302612304688,
        56.892642974853516,
        90.10194396972656
      ],
      "min": [
        31.47706413269043,
        16.561294555664063,
        9.169567108154297
      ],
      "type": "VEC3"
    },
    {
      "bufferView": 1,
      "byteOffset": 786384,
      "componentType": 5126,
      "count": 65532,
      "max": [
        1.0,
        1.0,
        1.0
      ],
      "min": [
        -1.0,
        -1.0,
        -1.0
      ],
      "type": "VEC3"
    },
    {
      "bufferView": 0,
      "componentType": 5125,
      "count": 338013,
      "type": "SCALAR"
    },
    {
      "bufferView": 1,
      "byteOffset": 1572768,
      "componentType": 5126,
      "count": 65532,
      "max": [
        100.62786865234375,
        43.642616271972656,
        85.06855773925781
      ],
      "min": [
        33.14787673950195,
        30.60519027709961,
        11.696113586425781
      ],
      "type": "VEC3"
    },
    {
      "bufferView": 1,
      "byteOffset": 2359152,
      "componentType": 5126,
      "count": 65532,
      "max": [
        0.9998417496681213,
        0.9999996423721313,
        0.9998054504394531
      ],
      "min": [
        -0.9993987679481506,
        -0.9999910593032837,
        -0.9999997615814209
      ],
      "type": "VEC3"
    },
    {
      "bufferView": 0,
      "byteOffset": 1352052,
      "componentType": 5125,
      "count": 333651,
      "type": "SCALAR"
    },
    {
      "bufferView": 1,
      "byteOffset": 3145536,
      "componentType": 5126,
      "count": 65532,
      "max": [
        110.14079284667969,
        43.98406219482422,
        141.17062377929688
      ],
      "min": [
        30.010501861572266,
        31.509841918945313,
        10.892711639404297
      ],
      "type": "VEC3"
    },
    {
      "bufferView": 1,
      "byteOffset": 3931920,
      "componentType": 5126,
      "count": 65532,
      "max": [
        0.9999898076057434,
        1.0,
        0.9994853138923645
      ],
      "min": [
        -0.9999675154685974,
        -1.0,
        -0.9999403357505798
      ],
      "type": "VEC3"
    },
    {
      "bufferView": 0,
      "byteOffset": 2686656,
      "componentType": 5125,
      "count": 314760,
      "type": "SCALAR"
    },
    {
      "bufferView": 1,
      "byteOffset": 4718304,
      "componentType": 5126,
      "count": 65532,
      "max": [
        111.35064697265625,
        43.29378890991211,
        141.4220428466797
      ],
      "min": [
        29.860136032104492,
        32.07023239135742,
        43.632530212402344
      ],
      "type": "VEC3"
    },
    {
      "bufferView": 1,
      "byteOffset": 5504688,
      "componentType": 5126,
      "count": 65532,
      "max": [
        0.9999998807907104,
        1.0,
        0.9999983310699463
      ],
      "min": [
        -0.9999996423721313,
        -1.0,
        -0.9999348521232605
      ],
      "type": "VEC3"
    },
    {
      "bufferView": 0,
      "byteOffset": 3945696,
      "componentType": 5125,
      "count": 348363,
      "type": "SCALAR"
    },
    {
      "bufferView": 1,
      "byteOffset": 6291072,
      "componentType": 5126,
      "count": 38526,
      "max": [
        104.89237976074219,
        43.98350524902344,
        109.5821762084961
      ],
      "min": [
        30.148326873779297,
        28.962417602539063,
        10.86379337310791
      ],
      "type": "VEC3"
    },
    {
      "bufferView": 1,
      "byteOffset": 6753384,
      "componentType": 5126,
      "count": 38526,
      "max": [
        0.9999980926513672,
        1.0,
        0.9995051622390747
      ],
      "min": [
        -0.9999904036521912,
        -0.9999988079071045,
        -0.9998222589492798
      ],
      "type": "VEC3"
    },
    {
      "bufferView": 0,
      "byteOffset": 5339148,
      "componentType": 5125,
      "count": 173595,
      "type": "SCALAR"
    }
  ],
  "asset": {
    "extras": {
      "author": "Ancient World 3D (https://sketchfab.com/ancientworld3d)",
      "license": "CC-BY-NC-SA-4.0 (http://creativecommons.org/licenses/by-nc-sa/4.0/)",
      "source": "https://sketchfab.com/3d-models/11783-bm-nike-mirror-0804ca4dbc484773a32bafa189b7c9cf",
      "title": "11783 BM Nike Mirror"
    },
    "generator": "Sketchfab-12.65.0",
    "version": "2.0"
  },
  "bufferViews": [
    {
      "buffer": 0,
      "byteLength": 6033528,
      "name": "floatBufferViews",
      "target": 34963
    },
    {
      "buffer": 0,
      "byteLength": 7215696,
      "byteOffset": 6033528,
      "byteStride": 12,
      "name": "floatBufferViews",
      "target": 34962
    }
  ],
  "buffers": [
    {
      "byteLength": 13249224,
      "uri": "scene.bin"
    }
  ],
  "materials": [
    {
      "doubleSided": true,
      "name": "Scene_-_Root",
      "pbrMetallicRoughness": {
        "metallicFactor": 0.0,
        "roughnessFactor": 0.6
      }
    }
  ],
  "meshes": [
    {
      "name": "Object_0",
      "primitives": [
        {
          "attributes": {
            "NORMAL": 1,
            "POSITION": 0
          },
          "indices": 2,
          "material": 0,
          "mode": 4
        }
      ]
    },
    {
      "name": "Object_1",
      "primitives": [
        {
          "attributes": {
            "NORMAL": 4,
            "POSITION": 3
          },
          "indices": 5,
          "material": 0,
          "mode": 4
        }
      ]
    },
    {
      "name": "Object_2",
      "primitives": [
        {
          "attributes": {
            "NORMAL": 7,
            "POSITION": 6
          },
          "indices": 8,
          "material": 0,
          "mode": 4
        }
      ]
    },
    {
      "name": "Object_3",
      "primitives": [
        {
          "attributes": {
            "NORMAL": 10,
            "POSITION": 9
          },
          "indices": 11,
          "material": 0,
          "mode": 4
        }
      ]
    },
    {
      "name": "Object_4",
      "primitives": [
        {
          "attributes": {
            "NORMAL": 13,
            "POSITION": 12
          },
          "indices": 14,
          "material": 0,
          "mode": 4
        }
      ]
    }
  ],
  "nodes": [
    {
      "children": [
        1
      ],
      "matrix": [
        1.0,
        0.0,
        0.0,
        0.0,
        0.0,
        2.220446049250313e-16,
        -1.0,
        0.0,
        0.0,
        1.0,
        2.220446049250313e-16,
        0.0,
        0.0,
        0.0,
        0.0,
        1.0
      ],
      "name": "Sketchfab_model"
    },
    {
      "children": [
        2,
        3,
        4,
        5,
        6
      ],
      "name": "11783-BM Nike Mirror.stl.cleaner.materialmerger.gles"
    },
    {
      "mesh": 0,
      "name": "Object_2"
    },
    {
      "mesh": 1,
      "name": "Object_3"
    },
    {
      "mesh": 2,
      "name": "Object_4"
    },
    {
      "mesh": 3,
      "name": "Object_5"
    },
    {
      "mesh": 4,
      "name": "Object_6"
    }
  ],
  "scene": 0,
  "scenes": [
    {
      "name": "Sketchfab_Scene",
      "nodes": [
        0
      ]
    }
  ]
}
